# xmcd
#
# Track frame offsets:
#	150
#	18876
#	40915
#	59077
#	69090
#	113524
#	127722
#	145378
#	155565
#	181661
#	196429
#	217574
#	231994
#	244203
#	259111
#	274258
#	297379
#
# Disc length: 4196 seconds
#
# Revision: 0
# Processed by: cddbd v1.5.2PL0 Copyright (c) Steve Scherf et al.
# Submitted via: EasyCDDAExtractor 11.9.9.666
#
DISCID=f1106211
DTITLE=Various Artist - Latin Guitar 2 Wave
DYEAR=1900
DGENRE=Instrumental
TTITLE0=Samba En Preludio
TTITLE1=Roxanne
TTITLE2=Verde Encanto
TTITLE3=Triste
TTITLE4=Suite - Medley
TTITLE5=Wave
TTITLE6=Manha De Carnaval
TTITLE7=Columbianas
TTITLE8=Primo volo
TTITLE9=Insentatez - Apelo
TTITLE10=Chanson H'hiver
TTITLE11=Concierto De Aranjuez
TTITLE12=Romance Do Sertao
TTITLE13=Camaiore
TTITLE14=Fuga Do Palhaco
TTITLE15=Canto De Ossanha
TTITLE16=Fantasia Do Samba
EXTD=
EXTT0=
EXTT1=
EXTT2=
EXTT3=
EXTT4=
EXTT5=
EXTT6=
EXTT7=
EXTT8=
EXTT9=
EXTT10=
EXTT11=
EXTT12=
EXTT13=
EXTT14=
EXTT15=
EXTT16=
PLAYORDER=
